<svg xmlns="http://www.w3.org/2000/svg" viewBox="0 0 985.11 1069.19"><defs><style>.cls-1{fill:#f7f7f7;opacity:0.55;}.cls-2{fill:#e5d1bd;}.cls-3{fill:#0c1721;}.cls-4{fill:#1a3151;}.cls-5{fill:#eacdb0;}.cls-6{fill:#15273d;}.cls-7{fill:#145566;}.cls-8{fill:#ffd559;}.cls-9{fill:#5e89a0;}.cls-10{opacity:0.12;}.cls-11,.cls-14{fill:#304956;}.cls-12{fill:#3ababa;}.cls-13{opacity:0.15;}.cls-14{opacity:0.19;}.cls-15{fill:#ebb044;}.cls-16{fill:#aeccdc;}.cls-17{fill:#d1e7f5;}.cls-18{fill:#9ea6ad;}.cls-19{fill:#edf3f7;}.cls-20{fill:#f4f7f9;}.cls-21{fill:#ebeced;}.cls-22{fill:#dbdcdd;}</style></defs><title>3-people-rocket-clouds</title><g id="Layer_2" data-name="Layer 2"><g id="Shadow"><path class="cls-1" d="M907.59,1024.62c-21.91-4-43.8-8.19-66.23-9.8-58.19-4.16-115.09,4.49-173,7.9-54.72,3.22-109.54,4.35-164.31,6.48q-18.82.73-37.64,1.66c-41.41,2.09-64.51,4.83-118.66,5.49-42.28.52-84.34-1.43-126.61.76q-66.85,3.45-133.52,9.86c-3.55.35-7.26.75-10.22,2.73-10.09,6.77,1.36,13.89,8.51,14.48,72.49,6,145.21,6.28,217.84,2.66,160.1-8,316.8-13.24,477.19-15.81q49.07-.81,98.13-1.91,24.95-.57,49.89-1.23c15.41-.41,32.32,1,47.46-2.06a12.17,12.17,0,0,0,5.31-2.1,4.68,4.68,0,0,0,1.73-5.1,6.32,6.32,0,0,0-3.45-3c-8.63-4.09-18.72-3-28-4C937.1,1029.92,922.35,1027.31,907.59,1024.62Z"/></g><g id="Object"><path class="cls-2" d="M578,870.27q-2.5,4.2-5,8.39a202.84,202.84,0,0,1-29.79-16.14c4.06-2.8,5.79-9.09,12.83-5.73C558.33,857.88,577.69,870.82,578,870.27Z"/><path class="cls-3" d="M570.32,882a6.23,6.23,0,0,0,2.55,4.38,18,18,0,0,1,2.61,2,6.1,6.1,0,0,1,1.17,2.63c1.27,4.83,2.89,19.06,12.56,10.39,8.78-7.87,1.33-25.13-2.18-33.87A3.24,3.24,0,0,0,586,866a4.78,4.78,0,0,0-2.26-.6c-4.46-.43-11.24-1.16-11.53,3.89-.12,2.16,1.36,4.27,1.08,6.57C573,877.7,570.21,880.56,570.32,882Z"/><path class="cls-4" d="M491.76,721.36c4.21,17.65,0,34.59,2.43,52.47,4.76,34.57,73.8,84.8,73.8,84.8s-11.52,15.09-13.84,16c-19.57-7-80.29-37.55-95.62-69.51q-22.44-46.82-40.68-95.56c-2.23-5.95-4.4-12.8-1.87-18.19,1.93-4.13,6.13-6.19,10.13-7.8,10.72-4.32,29.93-13.44,41.64-6.85C480.55,683.92,488.53,707.81,491.76,721.36Z"/><path class="cls-2" d="M504.09,906.25,497,912.92a202.9,202.9,0,0,1-24.12-23.8c4.67-1.56,8.09-7.11,13.91-1.93C488.63,888.87,503.62,906.69,504.09,906.25Z"/><path class="cls-3" d="M492.88,916.54a6.2,6.2,0,0,0,1.73,4.76,16.64,16.64,0,0,1,2.23,2.39,6.17,6.17,0,0,1,.7,2.79c.4,5-.5,19.27,10.54,12.43,10-6.21,5.71-24.51,3.79-33.72a3.26,3.26,0,0,0-.77-1.74,4.84,4.84,0,0,0-2.12-1c-4.32-1.2-10.87-3.11-12,1.81-.5,2.11.59,4.44-.09,6.66C496.3,912.75,493,915.07,492.88,916.54Z"/><path class="cls-4" d="M464.88,732.7c-1.24,18.94-10.71,34.56-13.76,53.2-5.91,36,47.6,107.52,47.6,107.52S482.55,905,480,905.13c-17.38-13.08-68.67-62.3-74.12-99q-8-53.71-11.19-108.06c-.39-6.64-.44-14.16,3.74-18.76,3.21-3.53,8-4.3,12.54-4.67,12-1,34.06-4.2,43.73,6C465.22,691.82,465.83,718.16,464.88,732.7Z"/><path class="cls-5" d="M408.79,548l15,1a75.55,75.55,0,0,0,1.17-11.91c4.34-.75,9.43-2.12,10.86-6.28a12.31,12.31,0,0,0,.44-4.11l-.09-17.19a15.17,15.17,0,0,0-.8-5.85c-1.35-3.2-4.71-5.06-8-6.22-8.37-2.94-18.08-2.64-25.71,1.88a13.6,13.6,0,0,0-5.09,4.81c-1.78,3.18-1.5,7.06-1.17,10.68.3,3.35.61,6.7.91,10,.35,3.85,1.05,8.28,4.37,10.26,1.76,1.05,4,1.21,5.55,2.58C408.91,540.14,407.76,544.55,408.79,548Z"/><path class="cls-6" d="M368.33,484.15a37.73,37.73,0,0,0-2.11-4.45c-1.76-3.1-4.09-5.89-5.36-9.21s-1.21-7.53,1.39-10c1.68-1.57,4.06-2.09,6.34-2.37a42.65,42.65,0,0,1,22.19,3.3c6.6,2.91,12.28,6.84,19.64,5.41,6.93-1.34,11.47.44,17.87,4,6.93,3.87,16.72,6.14,22.77,11a20.15,20.15,0,0,1,5.63,7.78A30.07,30.07,0,0,1,451.51,521a42.42,42.42,0,0,1-5.58,5c-4.11,3.18-9.05,7.14-14.07,7.74.6-4.3,6.76-17.14,4.06-21.19-4.28-6.44-16.39-6.47-23.09-6.19-7.31.31-14.44,4.26-21.61,4.15-5.16-.07-11.17-3.62-15-6.94C371.46,499.53,370.57,489.75,368.33,484.15Z"/><path class="cls-7" d="M436.79,548.48c28.86,14.62,38.41,61.21,50.4,88.79,8.21,18.87,19.72,40.37,40.11,43.14,13.17,1.79,25.82-5.16,37.08-12.23-4.53,15.83-10.89,33.75-26.27,39.62-11.36,4.34-24.3.55-36.15,3.3-12.77,3-23.89,13.44-37,12.25-9.91-.91-18-8.41-27.6-10.94-14.88-3.91-29.85,4.51-43.49,11.61-4,2.07-8.55,4.1-12.78,2.61-5.42-1.9-7.4-8.5-7.92-14.23-2.34-26.11,9.56-50.29,14.38-75.39,4.32-22.53-5.69-43.46-.88-66.31,3.39-16.07,16.77-26.84,33.21-26.52A38.51,38.51,0,0,1,436.79,548.48Z"/><path class="cls-5" d="M357.49,440.92l6.17,7.8c.64.81,2.84,2.66,1.74,3.84-.54.57-2.2,2.65-4,4.64-.86,2.08-1.82,4.13-2.5,6.28-1.74,5.45.37,18.79-6.72,20.23a10.74,10.74,0,0,1-4.13.3,8.8,8.8,0,0,1-3.05-1.36c-.74-.46-2-1-2.23-1.9s.81-3.22,1.06-4.2c.7-2.82,1.41-5.64,2.11-8.45s1.27-6.07-.49-8a12.81,12.81,0,0,1-1.19-1.25,5,5,0,0,1-.62-1.91,35.32,35.32,0,0,1-.51-7.63c.12-2.34,1.65-3.22,3.16-4.73,1.77-1.77,2.21-4.21,3.92-6a3.77,3.77,0,0,1,3.58-1.3,5.18,5.18,0,0,1,2.38,2Z"/><path class="cls-7" d="M334.12,543A46.72,46.72,0,0,1,330.88,524a191.7,191.7,0,0,1,8.28-53.13,53,53,0,0,1,22.52,3.86,300.86,300.86,0,0,0-.61,44c.42,7.14,1.91,13.33,7.72,17.14A280.11,280.11,0,0,0,409.4,558c3.12,1.37,6.32,2.73,8.79,5.16,4.53,4.45,5.81,12.09,4,18.76a30.68,30.68,0,0,1-11.72,16.28c-3.85,2.81-8.35,4.86-12.84,4.61s-8.73-2.88-12.53-5.58a205.36,205.36,0,0,1-44.93-43.89A47,47,0,0,1,334.12,543Z"/><path class="cls-2" d="M522.69,466.09a4.45,4.45,0,0,0-.66.48c-1.93,1.7-1.31,4.19-2.55,6.11-.55.86-3.45,1.76-2.46,3.13.37.5,1.48,2.29,2.7,4,.44,1.7.95,3.39,1.22,5.13.68,4.41-3.07,14.51,2.76,16.39a9.85,9.85,0,0,0,3.46.67,8.57,8.57,0,0,0,2.8-.72c.7-.28,1.88-.56,2.17-1.23s-.22-2.58-.28-3.37l-.57-6.77c-.19-2.21-.2-4.83,1.59-6.16a11,11,0,0,0,1.19-.83,3.76,3.76,0,0,0,.8-1.42,25.79,25.79,0,0,0,1.56-5.85c.46-3.57-3.79-7.29-6-9.55a5.46,5.46,0,0,0-1.89-1.39,5.69,5.69,0,0,0-3.74.44A11.52,11.52,0,0,0,522.69,466.09Z"/><path class="cls-7" d="M526,547.08a32,32,0,0,0,4.73-7.07,28.5,28.5,0,0,0,1.75-6.56,136.2,136.2,0,0,0,.71-42,50.31,50.31,0,0,0-19.71.57,218.11,218.11,0,0,1-5.9,34.13,26.27,26.27,0,0,1-2.39,6.65c-1.7,3-4.39,5.18-7,7.34L467.53,565.2c-6.17,5-12.52,10.32-16,17.49-9.69,19.85,13.85,34.91,29.08,21C497.71,588.13,511.45,565.14,526,547.08Z"/><path class="cls-7" d="M362.93,425c1.7,0,69.19-62.14,69.19-62.14l-.27-116-76.09,74.93Z"/><path class="cls-8" d="M371.82,381.77c-1.31-23.23-6.62-81.16-23.56-104.25-16.84,23.17-21.89,81.12-23.09,104.36a110.26,110.26,0,0,0,1.24,23.47l10.09,61.07h0c5.27,6.81,19.14,6.78,24.38-.06h0l9.81-61.11A110.54,110.54,0,0,0,371.82,381.77Z"/><path class="cls-9" d="M345.41,452.59a79.74,79.74,0,0,1-11.38-1l2.42,14.7h0c5.28,6.81,19.14,6.77,24.38-.06h0l2.45-15.25C357.57,452.62,351.32,452.79,345.41,452.59Z"/><polygon class="cls-10" points="393.81 284.25 406.39 386.41 392.02 399.49 389.21 288.78 393.81 284.25"/><path class="cls-7" d="M596.63,424.45c-1.7,0-69.47-61.82-69.47-61.82l-.26-116,76.43,74.57Z"/><path class="cls-8" d="M587.54,381.28c1.2-23.24,6.25-81.19,23.09-104.35,16.94,23.08,22.25,81,23.56,104.25a109.83,109.83,0,0,1-1.13,23.47l-9.81,61.12h0c-5.24,6.83-19.11,6.86-24.38.05h0l-10.09-61.07A110.23,110.23,0,0,1,587.54,381.28Z"/><path class="cls-9" d="M614.27,452a79.91,79.91,0,0,0,11.38-1.1l-2.36,14.71h0c-5.24,6.83-19.1,6.86-24.37.05h0L596.4,450.4C602.11,452.06,608.37,452.2,614.27,452Z"/><polygon class="cls-10" points="565.11 283.86 552.99 386.08 567.42 399.09 569.73 288.37 565.11 283.86"/><rect class="cls-11" x="447.98" y="433.62" width="76.26" height="18.51" transform="translate(-1.01 1.11) rotate(-0.13)"/><polygon class="cls-12" points="531.43 469.05 439.9 469.26 445.39 450.74 525.86 450.56 531.43 469.05"/><path class="cls-12" d="M573.17,193.67c-6.27-51.2-24-101.11-50.5-145.33C512.6,31.5,496,10.79,481.62,0c-14.33,10.85-30.83,31.64-40.83,48.53C414.54,92.86,397,142.86,391,194.08c-6.42,54.48,5.19,107.57,9.91,161.63l7,79.69,74.78-.17,74.78-.17,6.6-79.72C568.46,301.26,579.83,248.11,573.17,193.67Z"/><rect class="cls-11" x="432.36" y="467.92" width="107.63" height="6.54" rx="2.29" transform="matrix(1, 0, 0, 1, -1.07, 1.11)"/><polygon class="cls-13" points="447.97 435.31 524.23 435.14 524.25 447.48 447.97 438.77 447.97 435.31"/><polygon class="cls-14" points="407.28 435.4 556.84 435.06 560.19 395.61 404.86 397.21 407.28 435.4"/><path class="cls-15" d="M531.56,524a49.39,49.39,0,0,0-3.49-12.65c-5.48-12.7-16-22.88-28.92-25.31l-.7-.17a54.67,54.67,0,0,0-32,2.44,30.44,30.44,0,0,0-6.12,2.94,52.11,52.11,0,0,0-9.8,7.15,35.5,35.5,0,0,0-8.21,10.84,43.46,43.46,0,0,0-3.47,13.43c-1.91,16.08.89,32,5.1,46.59,2.07,7.2,4.5,14.16,7,21,1.24,3.41,2.6,6.75,3.72,10.13.42,1.27,3,7.5,2.46,8.28a152.53,152.53,0,0,1,12.38-14.79c4.11,14.19,8.29,26.91,15.48,42.15,0,0,9.22-22.34,14.56-40.37,4.49,7.05,9.87,19.45,13.39,29-.35-.95,1.18-4.16,1.44-5.13,3.86-14.27,7.64-29.15,11.13-44.71C529,559,534.1,541.49,531.56,524Z"/><path class="cls-8" d="M512.74,522.47a28.71,28.71,0,0,0-2-7.18c-3.14-7.19-9.12-12.94-16.47-14.31l-.4-.1a31.28,31.28,0,0,0-18.18,1.38,17.81,17.81,0,0,0-3.47,1.66,30.3,30.3,0,0,0-5.58,4A20.12,20.12,0,0,0,462,514.1a24.94,24.94,0,0,0-2,7.62c-1.12,9.14.44,18.19,2.81,26.55,1.17,4.12,2.55,8.11,3.95,12,.7,2,1.48,3.88,2.11,5.82.24.73,1.71,4.32,1.4,4.77a88.53,88.53,0,0,1,7.11-8.51,153.19,153.19,0,0,0,8.86,24.3s5.29-12.9,8.34-23.27a91.59,91.59,0,0,1,6.63,13.9,1,1,0,0,0,1.89-.13h0c2.19-8.23,4.33-16.78,6.3-25.71S514.22,532.4,512.74,522.47Z"/><path class="cls-4" d="M334,451.54s21.87,3.08,29.25-.61l1.32-7.78s-18.57,2.65-31.93.07Z"/><circle class="cls-16" cx="485.05" cy="196.27" r="54.74" transform="translate(3.28 400.47) rotate(-45)"/><path class="cls-17" d="M449.14,154.49a54.74,54.74,0,0,1,67.12,86.42Z"/><path class="cls-7" d="M485.18,254.71a58.44,58.44,0,1,1,58.31-58.57A58.5,58.5,0,0,1,485.18,254.71Zm-.25-109.47a51,51,0,1,0,51.15,50.92A51.09,51.09,0,0,0,484.93,145.24Z"/><path class="cls-4" d="M596.41,453.94s21.86,3.08,29.25-.62l1.32-7.78s-18.57,2.66-31.93.08Z"/><path class="cls-3" d="M186.48,1042.48a8.81,8.81,0,0,1-1.74-1.33,3.91,3.91,0,0,1-.34-2.91c1.64-11.12,4-22.39,4.83-33.59-4.09.7-10.69.49-14,3.1-2.28,1.79-1.21,3.76-2.34,5.78s-3.46,2.93-4.74,4.81a8.43,8.43,0,0,0-1,5.31c.27,4.62,1.75,9.08,3.21,13.48l3.56,10.7a3.31,3.31,0,0,0,3.81,3c2.68,0,5.56,0,7.77-1.48S188.56,1044.17,186.48,1042.48Z"/><path class="cls-3" d="M104,1044.27a3.87,3.87,0,0,1,0-2.93c2.83-9.89,6.26-19.82,8.6-29.86a6.48,6.48,0,0,1-1-2.8c-4.08-.07-9.48-.67-12.67,1.22-2.49,1.47-1.69,3.56-3.08,5.42s-3.82,2.44-5.34,4.14a8.55,8.55,0,0,0-1.74,5.12c-.34,4.62.53,9.24,1.4,13.79q1.06,5.54,2.12,11.07a3.3,3.3,0,0,0,3.38,3.46c2.65.4,5.5.78,7.9-.43s3.78-4.7,1.94-6.66C105,1045.28,104.31,1044.9,104,1044.27Z"/><polygon class="cls-18" points="100.63 791.05 92.96 819.99 101.46 902.48 91.47 1012.22 113.93 1014.05 143.06 909.08 166.05 794.22 100.63 791.05"/><path class="cls-12" d="M217,810.89q1.5,6.72,3.28,13.39a4.33,4.33,0,0,1,.09,2.88,4,4,0,0,1-1.83,1.63,36.4,36.4,0,0,1-30,2.27c-4.78-1.78-9.15-4.56-14-6.11-8.14-2.61-16.78-1.6-25.16-1.37s-15.5-2.11-23.45-3c-19.49-2.19-24.69-3.32-43.46,2,1-35.2-5.36-62.48,1-95.44l18.75-97.6c1.05-5.49,2.14-11.09,4.57-15.88,10.94-21.65,35.3-25.12,56.63-18.21,10.85,3.52,19.21,16.12,24.3,25.88,6.52,12.47,9.89,26.4,12.21,40.19,7.24,43.17,6.22,87.39,13.41,130.56Q214.94,801.53,217,810.89Z"/><path class="cls-6" d="M173.49,547.11a7.32,7.32,0,0,1,.34,1.38c.37,2.45-.65,5-.3,7.41.56,3.9,4.43,6.89,4.36,10.83,0,3.22-2.74,5.79-3.5,8.91-.84,3.42.76,7.09-.21,10.44a22.92,22.92,0,0,1-5.71,8.75c.69-.63,5.59.55,7,0,2.19-.84,2.56-1.56,3.53-3.5s.88-4,2.17-5.94c1.59-2.35,4.23-3.8,5.53-6.39,1.79-3.52.54-7.82,1.41-11.67,1.33-5.83,7.43-10.42,6.63-16.34-.48-3.47-3.27-6.16-4.51-9.44-.94-2.49-.95-5.22-1.44-7.84s-1.65-5.36-4-6.57c-1.32-.67-2.85-.78-4.23-1.31-2.39-.92-4.12-3-6.36-4.25-3.19-1.79-9.84.54-12.36,3.06s-2,5.12-.42,8C164,537.52,171.6,541.79,173.49,547.11Z"/><path class="cls-5" d="M141.34,599.3a4.66,4.66,0,0,0,.63,1.29,9.86,9.86,0,0,0,5,3.52,24.47,24.47,0,0,0,8,.91c3.63,0,3.88-2.09,5-5.18.6-1.68,1.1-3.4,1.56-5.13.25-1,.52-4.46,1.25-5,.5-.38,2.17.09,3-.16a8.32,8.32,0,0,0,3.4-2.31,23.65,23.65,0,0,0,3.46-5.38l5.15-9.92a56.32,56.32,0,0,0,4.57-10.45c1.57-5.52,2.14-13.61-1.34-18.51-3.17-4.46-8.57-6.83-13.62-8.45a31.16,31.16,0,0,0-20.62.32,16.71,16.71,0,0,0-7.18,4.87c-2.92,3.63-3.69,8.7-4.34,13.46l-1.77,13.17c-.69,5-1.13,10.92,2.11,14.33,1.72,1.81,4.27,2.61,5.63,4.77,1.7,2.71.92,6.16.46,9.11C141.31,596.22,140.89,597.79,141.34,599.3Z"/><path class="cls-6" d="M130.83,521.23c-2.32,1.12-5,1.74-7.23,3.14-4.27,2.74-6,8.06-7,13-.94,4.42-3.62,8-4,12.72a11.51,11.51,0,0,0,2.67,8.85c2.72,2.87,7.6,4.17,8.33,8,.79,4.23-4.21,8.43-2.37,12.31,1,2.14,3.64,2.92,5.36,4.55,1.92,1.82,2.57,4.56,3.49,7s2.5,5.09,5.09,5.63c.84-3.94,1.54-7,.52-11-.59-2.29-2.77-6.71-.12-8.58,1.76-1.64,5.19-1.64,5.71-4,.25-1.1-.35-2.19-.79-3.22a13.82,13.82,0,0,1,1.29-12.52,17.94,17.94,0,0,1,10.43-7.39c4.93-1.35,4.41-2.59,6.53-6.68,1.95-3.76,4.38-4.27,8.24-5.06,3.46-.7,4.65-1.32,6.4-4.12,1.28-2,2.84-4.48,2-7.18a15.11,15.11,0,0,0-3.69-5.53c-3.13-3.47-6.69-7.16-11.33-7.68-2.58-.29-5.19.46-7.77.13-1.71-.22-3.33-.91-5-1.28a13.8,13.8,0,0,0-8.77,1c-2.69,1.3-3,3.13-4.74,5.36A8.93,8.93,0,0,1,130.83,521.23Z"/><path class="cls-6" d="M144.11,506.88c1-2.67,1.34-6.31-1.12-7.73-1.35-.78-3.07-.52-4.51-1.1-3.07-1.25-3.44-5.32-4.59-8.42a2.49,2.49,0,0,0-.81-1.23,4.07,4.07,0,0,0-2.07-.33c-3.25-.2-5.08-3.79-7.86-5.48a7.64,7.64,0,0,0-10.35,3c-.75,1.48-1,3.17-1.71,4.66-2.92,6-12.74,7-14.2,13.56-1,4.42,2.58,9.5.12,13.31-1.58,2.43-5.3,3.6-5.44,6.5A4,4,0,0,0,95,527.34a8,8,0,0,0,5.32-1.33c2.55-1.5,4.66-3.65,7.12-5.29s5.56-2.77,8.38-1.87,4.86,3.52,7.72,3.57c2.3,0,4.32-1.64,6.6-1.79s4.12,1,6.2,1.57,4.88-.09,5.32-2.19a5.41,5.41,0,0,1,.32-1.52c.7-1.28,3-.77,3.7-2-.78-1.9-2.45-1.58-2.82-3.94C142.59,510.68,143.51,508.56,144.11,506.88Z"/><polygon class="cls-18" points="147.61 790.49 152.89 837.66 160.37 924.7 167.77 1010.93 191.41 1009.72 201.03 915.62 203.85 835.79 194.83 784.88 147.61 790.49"/><path class="cls-2" d="M290,680.89a4.25,4.25,0,0,0-.43-.7c-1.53-2.06-4.06-1.64-5.88-3-.8-.62-1.47-3.59-2.91-2.71-.53.33-2.4,1.28-4.23,2.36-1.73.29-3.46.66-5.21.79-4.45.32-14.21-4.24-16.56,1.41a10.24,10.24,0,0,0-1,3.4,8.71,8.71,0,0,0,.49,2.85c.23.72.41,1.91,1.06,2.26s2.59,0,3.38,0h6.79c2.22,0,4.83.2,6,2.09a9.72,9.72,0,0,0,.73,1.25,3.65,3.65,0,0,0,1.34.92,25.9,25.9,0,0,0,5.71,2c3.53.75,7.58-3.18,10-5.21a5.34,5.34,0,0,0,1.54-1.77,5.66,5.66,0,0,0-.13-3.76A11.75,11.75,0,0,0,290,680.89Z"/><path class="cls-12" d="M209,677.58a32.28,32.28,0,0,0,6.66,5.3,29.2,29.2,0,0,0,6.4,2.28,135.8,135.8,0,0,0,41.82,4.14A50.45,50.45,0,0,0,265,669.61a217.81,217.81,0,0,1-33.53-8.67A26.34,26.34,0,0,1,225,658c-2.81-1.93-4.81-4.8-6.74-7.6l-22.5-32.61c-4.53-6.56-9.27-13.32-16.12-17.39-19-11.27-35.93,11-23.34,27.27C170.44,646,192.23,661.58,209,677.58Z"/><path class="cls-19" d="M379.13,750.77c-1.95,0-3.88.07-5.79.2-6.47-37.08-39.22-65.29-78.66-65.29a80.19,80.19,0,0,0-48,15.86,84.22,84.22,0,0,0-73.18-42.1c-46.44,0-84.08,37.13-84.08,82.94a84,84,0,0,0,.45,8.59c-1.91-.13-3.83-.2-5.77-.2C37.64,750.77,0,787.91,0,833.71s37.64,82.94,84.07,82.94H379.13c46.43,0,110.55-31.57,110.55-77.38S425.56,750.77,379.13,750.77Z"/><path class="cls-20" d="M207.58,677.82A82.1,82.1,0,0,0,182.89,674c-44.81,0-81.13,35.83-81.13,80a81.34,81.34,0,0,0,.43,8.3c-1.84-.13-3.69-.19-5.57-.19-44.8,0-81.12,35.83-81.12,80a78.83,78.83,0,0,0,10.77,39.86C23.18,846,28.72,777,116.45,778.71,115.56,755.13,119.79,681.22,207.58,677.82Z"/><path class="cls-21" d="M124.73,916.65h254.4c46.43,0,110.55-31.57,110.55-77.38a81.78,81.78,0,0,0-4.88-27.87C429.51,918.8,216.07,903.73,124.73,916.65Z"/><path class="cls-2" d="M192.26,780.21a5.29,5.29,0,0,0,.15-1c.15-3.08-2.5-4.63-3.11-7.29-.27-1.19,1.39-4.44-.62-4.73-.74-.1-3.2-.65-5.7-1.05a63.08,63.08,0,0,1-5.41-3.26c-4.35-3.1-9.87-14.76-16.35-11.34a12,12,0,0,0-3.48,2.4,10.5,10.5,0,0,0-1.72,3c-.34.84-1.09,2.08-.76,2.89s2.4,2,3.13,2.58l6.27,5.18c2.05,1.69,4.3,3.87,3.94,6.51a12.33,12.33,0,0,0-.28,1.72,4.47,4.47,0,0,0,.54,1.87,30.93,30.93,0,0,0,3.72,6.23c2.67,3.38,9.41,2.86,13.2,2.84a6.34,6.34,0,0,0,2.77-.45c1.38-.68,2.12-2.18,2.75-3.58A13.09,13.09,0,0,0,192.26,780.21Z"/><path class="cls-12" d="M116,717.06a38.17,38.17,0,0,0,2.1,10,34.28,34.28,0,0,0,4.15,7,162.75,162.75,0,0,0,35.4,35.77,60.19,60.19,0,0,0,16-17.36,260.18,260.18,0,0,1-24.3-33.6,31.58,31.58,0,0,1-3.7-7.62c-1.11-3.92-.76-8.09-.41-12.15q2.08-23.64,4.16-47.26c.84-9.51,1.63-19.36-1.58-28.35-8.9-24.91-41.5-17.35-42.35,7.32C104.54,658.46,112.74,689.47,116,717.06Z"/><path class="cls-2" d="M642.65,532.91a6.11,6.11,0,0,1,1,.06c3.23.48,4.29,3.57,6.94,4.77,1.18.54,4.91-.5,4.79,1.64,0,.79,0,3.47-.11,6.16.72,2.13,1.34,4.29,2.26,6.33,2.31,5.18,13.3,13.39,8.37,19.42a12.8,12.8,0,0,1-3.24,3.12,11.13,11.13,0,0,1-3.49,1.16c-.94.18-2.39.7-3.17.18s-1.55-2.91-2-3.8q-2-3.81-4.07-7.62c-1.34-2.49-3.14-5.3-6-5.48a14.31,14.31,0,0,1-1.85-.07,4.78,4.78,0,0,1-1.84-1,33,33,0,0,1-5.7-5.18c-3-3.5-1-10.41-.18-14.36a6.86,6.86,0,0,1,1.06-2.79c1-1.29,2.71-1.74,4.3-2.11A14.82,14.82,0,0,1,642.65,532.91Z"/><path class="cls-18" d="M692.36,625.66a40.73,40.73,0,0,1-10-4.29,36.65,36.65,0,0,1-6.4-5.8,172.89,172.89,0,0,1-29.8-44.42,63.88,63.88,0,0,1,21.46-13,277.69,277.69,0,0,0,29.88,32.4,33.73,33.73,0,0,0,7.16,5.45c3.85,2,8.27,2.5,12.58,3l50.11,5.63c10.08,1.13,20.51,2.38,29.19,7.62,24.08,14.53,9.33,46.89-16.54,42.59C751,650,720.42,634.89,692.36,625.66Z"/><path class="cls-2" d="M974.82,1006.48c-1.83,2.77-4.27,4.94-6.4,7.43-9.61-6.08-18.48-12.33-26.67-20.45,6.41-1.58,7-7.37,15.24-2.29C959.66,992.82,970.28,1004.23,974.82,1006.48Z"/><path class="cls-3" d="M962.72,1011.11c-1.48,1.46-1.43,3-1.2,4.81.13,1.06.66,2.1.53,3.18a7.64,7.64,0,0,1-1.15,2.9c-3,5.23-11.13,16.34,1.28,16.13,11.28-.2,18.55-16.75,22.45-26.54a3.47,3.47,0,0,0,.44-2,4.7,4.7,0,0,0-1.06-2c-2.82-3.42-6.25-7.81-10.75-4.55-1.92,1.39-1.91,3.93-4,5.39C967.64,1009.63,964.2,1009.65,962.72,1011.11Z"/><path class="cls-7" d="M905.16,826.63c4.13,22-26.79,47.47-18.91,64.81,16.49,36.26,46.88,65.57,72.15,92.79,1.8,1.95,7.5,6.09,10,8.52-4.43,7.55-9.94,13.15-16,19.81-35-23.07-93.45-59.42-111-79.95-23.8-27.86-32.4-82.78-45.55-120.17-2.18-6.2-5.43-15.11-1.94-21.43,2.68-4.84,7-7.35,12.6-9.46,15-5.65,35.09-16.35,50.79-8.39C874.48,781.86,902,809.76,905.16,826.63Z"/><path class="cls-2" d="M749.34,1024.29c-3.35.69-6.73.35-10.09.72-2.69-11.7-4.82-23.16-5-35.33,5.89,3.86,10.36.23,12.62,10.17C747.65,1003.07,747.48,1019.25,749.34,1024.29Z"/><path class="cls-3" d="M737.13,1018.76c-2.1,0-3.15,1.23-4.31,2.67-.67.83-1,2-1.78,2.75a5.92,5.92,0,0,1-2.85,1.24c-5.89,1.46-19.65,3.55-10.67,12.28,8.15,7.94,25.06,1.44,34.85-2.66a3.77,3.77,0,0,0,1.78-1.09,4.84,4.84,0,0,0,.7-2.2c.52-4.38,1.23-10.18-4.28-11.11-2.35-.4-4.32,1.42-6.84,1C741.67,1021.25,739.23,1018.76,737.13,1018.76Z"/><path class="cls-7" d="M837,848.28c-16.13,16.1-62.28,27.92-69.79,46.45-3,7.44-12.92,62.42-14.43,101.13-.11,2.77,1.15,10,1.18,13.64-8.6,2.46-16.33,2-25.6,2.6-6.77-44.61-13.79-122.73-13.79-122.73,9.17-39,53.44-83.75,78-118.89,4.07-5.83,8.83-13.8,16.13-14.78,5.6-.75,10,1.23,15.06,4.51C837.24,769,878,783,881,800.42,884.23,819.5,849.38,835.91,837,848.28Z"/><path class="cls-18" d="M830.06,606.29c14,12.33,35.17,23.61,43.61,40.76,20.4,41.51,32.77,86.08,39.21,131.62q2.83,20,5.65,40c1.86,13.11,1.4,16.15-9.33,17.11-19.89,1.79-61-2.7-80.22-9.91-9.16-3.44-18-8.48-27.38-10.62-13.67-3.12-26.37,3.14-39.6,2.23,1.38-14,4.5-27.26,4.81-41.65A395.18,395.18,0,0,0,765,732.66c-2.21-25-3.36-50.12-5.42-75.06-1.47-17.87-5.19-31.86,7-47,6.63-8.22,18.8-22.48,29.8-22.29C808,588.56,821.77,599,830.06,606.29Z"/><path class="cls-2" d="M765.27,582.89c4.07,3.84,9.18,6.34,13.8,9.49s7,6.45,9.76,11c2,3.29,4.32,5.53,8.8,4.42,8.44-2.1,3.49-7.77,3.36-13.3-.15-6.32,2.52-12.45,3.62-18.59,3.2-17.76-10.66-44.69-31.63-43.14C750.06,534.48,752.93,571.23,765.27,582.89Z"/><path class="cls-6" d="M792.56,552.3c2.3,1.48,3.56,4.69,2.29,7.11-.68,1.29-1.94,2.19-2.73,3.42-2.29,3.63.38,8.46,3.74,11.13s7.57,4.52,9.84,8.16c11.42-9.26,20.17-22.67,21-37.36a36.92,36.92,0,0,0-11.54-28.82c-9.26-8.42-18.63-8-30.69-9-5-.42-10.06-.83-14.83.62-4.34,1.32-8.11,4.09-12.41,5.55-7.11,2.4-16.15,1.53-20.73,7.48-2.65,3.44-2.82,8.33-1.35,12.42s4.34,7.51,7.39,10.61A87.5,87.5,0,0,0,756,554.8c-2.31-1.55,5.69-10.46,7.51-10.85,4.3-.92,11.11,4,15.51,5C783.26,550,788.81,549.88,792.56,552.3Z"/><path class="cls-19" d="M787.07,686.25c-1.39,0-2.76,0-4.12.14C778.35,660,755.07,640,727,640a56.93,56.93,0,0,0-34.14,11.27,59.89,59.89,0,0,0-52-29.93c-33,0-59.77,26.4-59.77,59a58.67,58.67,0,0,0,.31,6.11c-1.35-.09-2.72-.14-4.1-.14-33,0-59.77,26.4-59.77,59s26.76,59,59.77,59H787.07c33,0,78.59-22.45,78.59-55S820.08,686.25,787.07,686.25Z"/><path class="cls-20" d="M665.11,634.39a58.47,58.47,0,0,0-17.56-2.69c-31.85,0-57.67,25.47-57.67,56.9a57.21,57.21,0,0,0,.3,5.89c-1.3-.08-2.62-.13-3.95-.13-31.86,0-57.68,25.47-57.68,56.9a56,56,0,0,0,7.66,28.33c-2.2-25.67,1.74-74.68,64.11-73.48C599.68,689.35,602.7,636.81,665.11,634.39Z"/><path class="cls-22" d="M606.2,804.18H787.07c33,0,78.59-22.45,78.59-55a58.16,58.16,0,0,0-3.47-19.82C822.89,805.71,671.15,795,606.2,804.18Z"/><path class="cls-2" d="M684.9,738a6.35,6.35,0,0,1,.36-1c1.41-3,4.68-3.07,6.6-5.25.85-1,.95-4.84,3-4.1.74.28,3.32,1,5.86,1.91,2.24-.07,4.48,0,6.71-.31,5.63-.69,16.69-8.8,21-2.32a12.92,12.92,0,0,1,2,4,10.82,10.82,0,0,1,.09,3.68c-.1.95,0,2.49-.75,3.08s-3.24.64-4.23.83l-8.48,1.66c-2.77.55-6,1.45-7,4.09a12.92,12.92,0,0,1-.61,1.75A4.76,4.76,0,0,1,708,747.5a32.86,32.86,0,0,1-6.63,3.94c-4.21,1.81-10.24-2.09-13.78-4a6.74,6.74,0,0,1-2.36-1.83c-.95-1.33-.87-3.1-.76-4.73A15.25,15.25,0,0,1,684.9,738Z"/><path class="cls-18" d="M788.13,717.56a40.58,40.58,0,0,1-7,8.26,36.29,36.29,0,0,1-7.42,4.42,172.62,172.62,0,0,1-51.19,15.51,64.07,64.07,0,0,1-6.18-24.33,277.35,277.35,0,0,0,39.73-19.1,33.94,33.94,0,0,0,7.3-5.25c3-3.1,4.81-7.18,6.54-11.15l20-46.28c4-9.3,8.28-18.92,15.82-25.69,20.94-18.77,47.57,4.79,35.89,28.28C828.53,668.6,805.17,693.43,788.13,717.56Z"/></g></g></svg>