<svg xmlns="http://www.w3.org/2000/svg" viewBox="0 0 71.73 71.73"><defs><style>.cls-1{fill:#0057ff;}.cls-2{fill:#fff;}</style></defs><title>behance</title><g id="Layer_2" data-name="Layer 2"><g id="Capa_1" data-name="Capa 1"><path class="cls-1" d="M35.86,71.73h0A35.87,35.87,0,0,1,0,35.86H0A35.87,35.87,0,0,1,35.86,0h0A35.87,35.87,0,0,1,71.73,35.86h0A35.87,35.87,0,0,1,35.86,71.73Z"/><path class="cls-2" d="M30.51,47.76a6.75,6.75,0,0,0,2.84-1.26,7,7,0,0,0,1.78-2,7.42,7.42,0,0,0,1.11-4,6.66,6.66,0,0,0-1-3.68,5.58,5.58,0,0,0-2.91-2.21,5.93,5.93,0,0,0,1.92-1.43,5.63,5.63,0,0,0,1.16-3.7,6.34,6.34,0,0,0-1.15-3.83Q32.37,23.06,27.78,23H15.64V48.1H27A17.18,17.18,0,0,0,30.51,47.76ZM20.65,27.35h5.47a9.12,9.12,0,0,1,3,.4,2.22,2.22,0,0,1,1.35,2.31,2.38,2.38,0,0,1-1,2.21,5.07,5.07,0,0,1-2.65.62H20.65Zm0,16.39V37.05h6.18a6.45,6.45,0,0,1,2.52.42,2.7,2.7,0,0,1,1.59,2.69,3.17,3.17,0,0,1-1.65,3.14,5.82,5.82,0,0,1-2.54.44Z"/><path class="cls-2" d="M40.5,46.45A10.14,10.14,0,0,0,47,48.73,9,9,0,0,0,54,46a6.08,6.08,0,0,0,1.8-3.36h-5a4.32,4.32,0,0,1-1,1.28,4.17,4.17,0,0,1-2.7.85,4.93,4.93,0,0,1-2.68-.7,4.47,4.47,0,0,1-1.94-3.92H56.08a24.26,24.26,0,0,0-.16-3.68,9.16,9.16,0,0,0-1.48-3.84,7.58,7.58,0,0,0-3.21-2.75A10.59,10.59,0,0,0,46.86,29a9,9,0,0,0-6.64,2.58c-1.7,1.71-2.56,4.18-2.56,7.39Q37.66,44.17,40.5,46.45ZM44,34.1A3.9,3.9,0,0,1,46.86,33a4.28,4.28,0,0,1,2.88,1A4.06,4.06,0,0,1,51,37H42.67A5.13,5.13,0,0,1,44,34.1Z"/><rect class="cls-2" x="41.09" y="24.44" width="10.91" height="2.53"/></g></g></svg>