<svg xmlns="http://www.w3.org/2000/svg" viewBox="0 0 56 56"><title>branding</title><g id="Layer_2" data-name="Layer 2"><g id="Layer_1-2" data-name="Layer 1"><polygon points="5.12 28 6.88 28 6 26.24 5.12 28"/><path d="M34,0H0V52H3V28a1,1,0,0,1,.11-.45l2-4a1.05,1.05,0,0,1,1.43-.36,1,1,0,0,1,.36.36l2,4A1,1,0,0,1,9,28V52h9V34a1,1,0,0,1,1-1H34ZM7,12a5,5,0,1,1,5-5A5,5,0,0,1,7,12Zm21-2H15V8H28Zm4-4H15V4H32Z"/><path d="M25,39H51a5,5,0,0,0,4.9-4H20.1A5,5,0,0,0,25,39Z"/><path d="M7,4a3,3,0,1,0,3,3A3,3,0,0,0,7,4ZM8,8H6V6H8Z"/><rect x="5" y="30" width="2" height="16"/><path d="M51,41H25a7,7,0,0,1-5-2.11V56H56V38.89A7,7,0,0,1,51,41ZM24,50H22V48h2Zm12,4H27V52h9Zm4-4H27V48H40Z"/><path d="M5,55a1,1,0,0,0,2,0V52H5Z"/><rect x="5" y="48" width="2" height="2"/><path d="M40,19V29H56V19Zm4,4H42V21h2Zm8,4H47V25h5Zm2-4H47V21h7Z"/><path d="M52,13V11.46A6,6,0,1,0,43.53,11a5.21,5.21,0,0,0,.47.47V13H41v2H55V13Zm-3-2.59V13H47V10.41l-2.71-2.7,1.42-1.42L48,8.59l2.29-2.3,1.42,1.42Z"/></g></g></svg>