<svg xmlns="http://www.w3.org/2000/svg" viewBox="0 0 537.83 600.09"><defs><style>.cls-1{fill:#d67086;}.cls-2{fill:#eed5d5;}.cls-3{fill:#ccaf5d;}.cls-4{fill:#292949;}.cls-5{fill:#5d66d3;}.cls-6{fill:#a2a4a7;}.cls-7{fill:#3b3387;}.cls-8{fill:#ddc8ac;}.cls-9{fill:#fff;}.cls-10{fill:#b5b7b8;}.cls-11{fill:#e1cfb5;}.cls-12{fill:#666;}.cls-13{fill:#8cabef;}.cls-14{fill:#b0b0b0;}.cls-15,.cls-17{opacity:0.21;}.cls-16,.cls-17{fill:#606060;}.cls-18{fill:#474ebb;}.cls-19{fill:#414baa;}.cls-20{fill:#7f7f7f;}.cls-21{fill:#8e8e8e;}.cls-22{fill:#4e4e4e;}</style></defs><title>future-people</title><g id="Layer_2" data-name="Layer 2"><g id="Object"><path class="cls-1" d="M41.51,198.62c21-4.14,25.07-26.67,25.48-29.39a.8.8,0,0,0-.09-.52L65.55,166l-4.86-9.66-4.85-9.66L54.48,144a.8.8,0,0,0-.37-.38c-2.42-1.29-22.92-11.49-38.79,2.89a.9.9,0,0,0,.56,1.57c3.52.21,10.58.8,13.86,2.39a.91.91,0,0,1-.24,1.68c-4.68,1.1-17.11,5.09-23.48,17.39C-1.92,184.85.28,186.68.28,186.68l.32-.16-.32.16s.18,2.87,17.2,5.65c13.67,2.24,24.29-5.35,28-8.45a.91.91,0,0,1,1.49.82c-.68,3.57-4.42,9.59-6.36,12.53A.91.91,0,0,0,41.51,198.62Z"/><path class="cls-2" d="M48.31,188.06c14.93-2.49,17.1-19.59,17.31-21.65a.7.7,0,0,0-.07-.4l-4.86-9.66-4.85-9.66a.91.91,0,0,0-.27-.31c-1.79-1.06-16.81-9.52-27.71,1a.73.73,0,0,0,.45,1.21c2.53.27,7.61.95,10,2.27a.7.7,0,0,1-.12,1.28c-3.32.69-12.09,3.34-16.26,12.54-5.19,11.47-3.56,12.94-3.56,12.94s.19,1.93,10.35,4.38c.67.17,1.4.33,2.16.5,9.87,2.15,17.23-3.31,19.77-5.56a.7.7,0,0,1,1.1.68c-.38,2.71-2.86,7.19-4.16,9.38A.74.74,0,0,0,48.31,188.06Z"/><path class="cls-3" d="M104.4,204c19.22-12.15,25-33.7,26.47-40.75L82.94,172.9l.56-.09c0,.13,0,.27.07.4-.33,12-7.58,29-11.53,36.14C67.32,217.81,81.2,218.7,104.4,204Z"/><path class="cls-4" d="M67.44,152.8c-.07-.14-.14-.28-.21-.44l0,0c-7-14.18-6.78-21.54-6.3-24.15l-8.76,8.41s-2.58,5.83,5.15,21.25,14,16.94,14,16.94l11.68-1.93.28-.06h0C80.81,171.58,74.66,167.22,67.44,152.8Z"/><path class="cls-4" d="M104.41,204c19.23-12.15,25-33.7,26.47-40.74L83,172.88l.56-.1c0,.14,0,.27.06.41-.33,12.05-7.58,29-11.53,36.13C67.33,217.79,81.22,218.68,104.41,204Z"/><path class="cls-5" d="M175.32,142.34c4.39-3.23,8.38-6.48,12-9.71,25.34-22.57,32.77-44.18,34.7-51.71a16.74,16.74,0,0,1-3.26-4.24l0,0a1.18,1.18,0,0,1-.11-.19c-.06-.11-.13-.21-.18-.32A16.31,16.31,0,0,1,217,72c-6.68-2.66-23.43-7.76-48.48-5a155.58,155.58,0,0,0-28,5.85c-16.48,5-29.9,12.64-43.27,22.94l-.07,0L74.06,116.3,61,127.94l.09.1-.2.19c-.46,2.51-.69,9.42,5.53,22.54.32.68.64,1.35,1,2,7.22,14.41,13.37,18.78,15.8,20l47.65-9.55h0C147.2,158.73,161.42,152.57,175.32,142.34Z"/><path class="cls-4" d="M234,73c2.46-2.3,3.23-4.15,2.76-5.1,0,0-.08-.08-.11-.12h0c-.42-.61-1.51-1-3.25-1A15.41,15.41,0,0,0,231,67a61.31,61.31,0,0,0-13.83,5L217,72a16.31,16.31,0,0,0,1.43,4.22c.05.11.12.21.18.32A16.73,16.73,0,0,0,222,80.94a0,0,0,0,0,0,0,0,0,0,0,1,0,0,.08.08,0,0,0,0,0,64.77,64.77,0,0,0,11.19-7.22C233.5,73.42,233.78,73.19,234,73Z"/><path class="cls-1" d="M177.81,96.75a20.12,20.12,0,1,0,.46.7c-.13-.26-.31-.46-.45-.71Z"/><path class="cls-6" d="M218.6,76.62l0,0,0,0-.06-.11v0l.12-.08a1.09,1.09,0,0,1,.08.15l0,.07Z"/><path class="cls-4" d="M24.86,115.13c8,1.07,25.71,5.39,35.61,12.25.17.19.36.37.54.56L97.16,95.72C90.9,92.72,70,84.21,48.5,92.4,22.86,102.19,15.25,113.84,24.86,115.13Z"/><path class="cls-4" d="M152.37,208.63s6.8,3.41,8,21.32,5.32,28.89,5.32,28.89-5.34,4-10.27,2.3-6.67-1.91-6.62-9.31-4.2-41.63-4.2-41.63Z"/><path class="cls-4" d="M139.43,217.66a18,18,0,0,1,15.74,11.88,15.82,15.82,0,0,0-9-24.2,18.29,18.29,0,0,0-6.26,12.32Z"/><polygon class="cls-1" points="130.99 260 109.23 267.99 93.43 282.34 93.1 217.99 73.38 221.05 66.85 295.3 87.87 313.09 130.17 298.71 130.99 260"/><polygon class="cls-4" points="103.02 583.44 102.32 589.07 112.37 596.33 118.45 591.53 113.78 585.09 103.72 577.82 103.02 583.44"/><polygon class="cls-7" points="107.34 411.15 105.21 428.23 119.15 487.39 102.68 581.54 113.08 585.41 142.88 493.81 147.9 467.08 149.08 410.26 107.34 411.15"/><polygon class="cls-7" points="187.48 432.13 161.7 589.94 151.68 589.71 152.28 488.17 135.73 416.51 187.48 432.13"/><polygon class="cls-4" points="151.77 588.46 151.63 594.14 162.33 600.09 167.88 594.53 162.6 588.71 151.77 588.46"/><path class="cls-1" d="M108.39,390.17c9.92-57.4,7.86-99.42,8.57-110.92a24.08,24.08,0,0,1,8.75-17.3c3.48-.71,6.55-2.92,10.07-3.74,23.8-5.54,36.26,13.27,44.65,33.43a581.9,581.9,0,0,1,25.69,76.57c6,22.91,11.94,46,14.11,69.69.9,9.77,1.62,19-8.89,23.08-16.75,6.46-35.39,5.87-53,7.65-20.19,2.05-40.39,3.41-60.67,3.8C87.11,472.63,98.48,447.57,108.39,390.17Z"/><polygon class="cls-8" points="75.66 220.94 67 211.85 70.39 196.31 78.95 196.52 81.15 210.17 85.43 212.88 85.28 219.45 75.66 220.94"/><polygon class="cls-1" points="147.27 257.3 169.83 261.86 215.1 307.77 269.02 307.03 271.65 323.72 208.45 333.31 157.37 298.85 147.27 257.3"/><polygon class="cls-9" points="152.82 258.63 155.55 319.98 125.52 261.01 134.76 257.96 141.34 256.15 152.82 258.63"/><polygon class="cls-8" points="269.53 311.19 279.58 305.26 292.24 308.74 292.07 315.56 270.77 319.06 269.53 311.19"/><path class="cls-8" d="M154.76,223.49c-7.41-17.19-29.1-9.09-32.27,6.88-1.8,9.08,2.66,25,13.54,25.44.51,1.56,1.38,4.49,2.83,5.28s5.46-1.16,7-1.9a2.56,2.56,0,0,0,1.12-.84c.32-.5.14-1.61-.12-2.83a15.25,15.25,0,0,0,3.49-1.54c4.82-2.87,7.51-8.54,7.89-14.15S157,228.65,154.76,223.49Z"/><path class="cls-4" d="M145.76,205.39s4.34,9.25-7.5,14.73-17.73,17-13.29,26.81S140.3,262.24,136,266s-22.71,5.08-22.71,5.08-18.91-33.81-7.82-52.75S137.57,194.16,145.76,205.39Z"/><polygon class="cls-4" points="242.88 579.81 241.97 586.89 255.22 595.79 263.22 589.62 257.04 581.63 243.79 572.73 242.88 579.81"/><polygon class="cls-10" points="242.43 577.43 252.65 487.1 240.35 385.98 243.12 364.46 298.05 362.38 300.04 397.39 290.81 487.24 256.12 582.05 242.43 577.43"/><polygon class="cls-4" points="286.64 263.88 314.82 268.96 379.95 284.45 375.81 306.28 309.23 305.28 286.64 263.88"/><polygon class="cls-10" points="338.36 372.5 338.51 463.65 320.16 581 306.95 580.87 299.69 472.35 282.7 363.74 338.36 372.5"/><polygon class="cls-4" points="306.97 586.44 321.18 593.72 328.39 586.65 321.33 579.44 307.04 579.3 306.97 586.44"/><path class="cls-4" d="M230.66,410.39c-.22-3.95-.29-7.25-.36-8.43-.65-10.58-.63-21.19-.22-31.79.36-9.5-.19-32.95.6-42.42.66-7.82,3.6-27.47,6.31-34.91,6.76-18.5,4-19.92,40.09-28.39,15.79-3.72,20.44,5.92,34.53,16.24,1.39,1,1.9,7.76,2.36,9.51.8,3.1,1.64,6.18,2.56,9.25.72,2.4,1.5,4.8,2.34,7.17h0s15.35,49,23.54,59,24.49,23.5.19,34.76a91,91,0,0,1-13.24,4.72s-20.72-.49-31.26.52a179.91,179.91,0,0,0-28.8,5.24c-6.3,1.63-12.68,3.75-18.14,7.24-5.2,3.32-8.77,7.86-14,11.29a2.88,2.88,0,0,1-1.65.64C232.24,429.85,231.12,418.69,230.66,410.39Z"/><path class="cls-11" d="M277.11,268.74c-1.45,1.46-5.47,3.19-10.35,3a2.39,2.39,0,0,1-2.17-1.62,61.36,61.36,0,0,1-2-8c-3.62,0-7.94-.44-9.66-3.62a10,10,0,0,1-.92-3.28l-2.25-14a12.45,12.45,0,0,1-.14-4.86c.66-2.78,3.13-4.75,5.64-6.13,6.39-3.51,14.31-4.59,21.11-2a11.07,11.07,0,0,1,4.78,3.21c1.87,2.34,2.17,5.52,2.39,8.51.21,2.76.42,5.51.62,8.27.24,3.17.27,6.85-2.15,8.91-1.29,1.09-3.11,1.52-4.16,2.84C276,262.36,277.48,265.78,277.11,268.74Z"/><path class="cls-4" d="M301.3,211.45a29,29,0,0,1,1.11-3.9c1-2.75,2.52-5.33,3.1-8.2s0-6.28-2.48-7.89a9,9,0,0,0-5.47-1.06A35.09,35.09,0,0,0,280,196.07c-5,3.25-9,7.22-15.21,7.06-5.79-.16-9.24,1.9-14,5.67-5.1,4.07-12.73,7.24-17,12a16.38,16.38,0,0,0-3.52,7.07,24.74,24.74,0,0,0,8.44,24.75,34.77,34.77,0,0,0,5.22,3.34c3.77,2,8.31,4.57,12.46,4.38-1.07-3.41-7.8-13-6.16-16.65,2.6-5.8,12.42-7.47,17.9-8.14,6-.74,12.28,1.5,18.09.44,4.18-.76,8.57-4.45,11.24-7.66C300.84,224.34,300.24,216.29,301.3,211.45Z"/><path class="cls-12" d="M444,422.37l-1,18.48a10.75,10.75,0,0,1-11.17,10.31l-47.35-2.5a10.75,10.75,0,0,1-10-11.43l1-18.47Z"/><path class="cls-13" d="M308,166.4c3.43-65,57.61-115,121-111.64s112,58.76,108.59,123.77a119.38,119.38,0,0,1-21,61.88h0C481.79,293.61,472,339.18,472,339.18l-57.77-3.05-57.77-3.05s-5-46.35-34-102.92h0A119.42,119.42,0,0,1,308,166.4Z"/><path class="cls-14" d="M473.31,339.25l-4.14,78.5a5.82,5.82,0,0,1-6,5.64l-106.9-5.65a5.8,5.8,0,0,1-5.34-6.23l4.15-78.5Z"/><g class="cls-15"><path class="cls-16" d="M311.24,144.48c26.08,60,77.95,153.27,160.81,194.39,0,.19-.07.31-.07.31l-57.77-3.05-57.77-3.05s-5-46.35-34-102.92h0A119.42,119.42,0,0,1,308,166.4,122,122,0,0,1,311.24,144.48Z"/></g><path class="cls-17" d="M518.38,187.22c3-56.76-39.45-105.13-94.8-108-32.36-1.71-62,12.49-81.57,35.92,18.93-29.89,52.47-48.92,89.63-46.95,55.36,2.92,97.8,51.29,94.81,108.05a104.15,104.15,0,0,1-24.09,61.54A104.33,104.33,0,0,0,518.38,187.22Z"/><polygon class="cls-18" points="436.53 337.31 458.39 187.38 438.14 202.88 422.68 174.53 404.14 200.21 385.92 183.41 391.88 334.96 385.95 334.64 379.45 169.29 403.27 191.24 423.38 163.38 440.02 193.89 466.36 173.73 442.46 337.63 436.53 337.31"/><path class="cls-19" d="M444.64,322.67l-2.18,15-5.93-.32,2.7-18.47Q441.92,320.79,444.64,322.67Z"/><path class="cls-19" d="M389.43,272.56l2.45,62.4-5.93-.32-2.73-69.42C385.26,267.69,387.32,270.13,389.43,272.56Z"/><rect class="cls-20" x="405.54" y="303.69" width="14.52" height="118.37" transform="translate(28.67 755.97) rotate(-86.98)"/><rect class="cls-20" x="403.9" y="334.64" width="14.52" height="118.37" transform="translate(-3.79 783.66) rotate(-86.98)"/><path class="cls-21" d="M405.84,386.28l-53.4-2.82.87-16.46,32.94,1.74A220.89,220.89,0,0,0,405.84,386.28Z"/><path class="cls-21" d="M354.08,352.5l1-19.49,1.86.1c5,7.37,10.21,14.14,15.4,20.36Z"/><path class="cls-21" d="M463.2,423.39l-106.9-5.65a5.8,5.8,0,0,1-5.34-6.23l.72-13.55L428.86,402a171.87,171.87,0,0,0,40,17.19A5.72,5.72,0,0,1,463.2,423.39Z"/><path class="cls-12" d="M386.25,368.74,353.31,367l.77-14.5,18.29,1Q379.29,361.74,386.25,368.74Z"/><path class="cls-12" d="M428.86,402,351.68,398l.76-14.5,53.4,2.82A199,199,0,0,0,428.86,402Z"/><path class="cls-22" d="M374.89,430c12.63,13.86,38,19.19,46.35,20.62l-36.71-1.94a10.75,10.75,0,0,1-10-11.43Z"/><rect class="cls-18" x="422.88" y="0.04" width="9.16" height="37.32" rx="3.05" transform="translate(0.7 -12.05) rotate(1.62)"/><rect class="cls-18" x="361.72" y="9.12" width="9.16" height="37.32" rx="2.84" transform="matrix(0.86, -0.51, 0.51, 0.86, 37.29, 191.18)"/><rect class="cls-18" x="484.74" y="12.59" width="9.16" height="37.32" rx="3.11" transform="translate(877.6 330.66) rotate(-146.02)"/><path class="cls-11" d="M361,324l16.29.88,9.52-11-5.19-4.34-10.91,3.83-3.05-2.08-11.1,4.25S361.25,324,361,324Z"/><polygon class="cls-4" points="259.94 278.41 313.94 324.35 360.12 313.67 367.17 327.03 313.14 351.75 295.04 346.14 248.53 300.66 259.94 278.41"/></g></g></svg>