<svg xmlns="http://www.w3.org/2000/svg" viewBox="0 0 696.56 161.69"><defs><style>.cls-1{fill:#ed1c64;}.cls-2{fill:#5c58a6;}</style></defs><title>v2</title><g id="Layer_2" data-name="Layer 2"><g id="Layer_1-2" data-name="Layer 1"><g id="v2"><path class="cls-1" d="M97.83,146.3c14.25-12.09,26.2-26.09,34.42-43a82.83,82.83,0,0,0,8.69-34.07c.6-21-8.06-37.67-24.34-50.36C88.26-3.24,47-1.7,20.38,22.38,2.24,38.76-5.38,64.14,4.09,87.67c4.88,12.11,13.34,21.5,24,28.92C43.59,127.36,60.87,132,79.7,131.27a2.73,2.73,0,0,0,.49-.06c7.41-1.67,8.48,2.33,7,7.93C85.61,145,83,150.59,80.71,156.27c-.73,1.86-1.95,3.52-2.59,5.42C84.67,156.53,91.48,151.68,97.83,146.3Z"/><path class="cls-2" d="M108.76,143.05C123,131,135,117,143.17,100A82.8,82.8,0,0,0,151.87,66c.59-21-8.06-37.67-24.34-50.36C99.19-6.49,58-4.94,31.3,19.13,13.16,35.51,5.54,60.9,15,84.42c4.88,12.11,13.34,21.51,24,28.92C54.52,124.11,71.8,128.77,90.63,128a2.73,2.73,0,0,0,.49-.06c7.41-1.67,8.47,2.33,7,7.93-1.56,5.87-4.23,11.45-6.47,17.13-.73,1.86-1.95,3.53-2.59,5.42C95.59,153.28,102.4,148.44,108.76,143.05Z"/><path class="cls-2" d="M162.83,10.27a13.79,13.79,0,0,1,16.87,0,9.51,9.51,0,0,1,3.21,7.43A9.37,9.37,0,0,1,179.7,25a13.79,13.79,0,0,1-16.87,0,9.37,9.37,0,0,1-3.21-7.29A9.51,9.51,0,0,1,162.83,10.27ZM180.63,39v74.15H161.76V39Z"/><path class="cls-2" d="M262.41,46.34Q270,54.77,270,70v43.09H251.3V72.17q0-8.84-4.55-13.72T234.3,53.56q-8,0-12.85,5.22t-4.82,15v39.35H197.76V39h18.87V53.83a23.63,23.63,0,0,1,9.71-11.71,28.83,28.83,0,0,1,15.59-4.22Q254.77,37.9,262.41,46.34Z"/><path class="cls-2" d="M340.36,42.59A33.28,33.28,0,0,1,354,55.77a40.1,40.1,0,0,1,4.95,20.28q0,11.64-4.95,20.21a33.85,33.85,0,0,1-13.59,13.18,43.34,43.34,0,0,1-38.94,0,33.85,33.85,0,0,1-13.59-13.18q-4.95-8.57-4.95-20.21a40.1,40.1,0,0,1,4.95-20.28,33.28,33.28,0,0,1,13.59-13.18,43.93,43.93,0,0,1,38.94,0ZM307.51,59.92Q302,65.47,302,76.05t5.49,16.12a18.88,18.88,0,0,0,26.76,0q5.49-5.55,5.49-16.12t-5.49-16.13a18.9,18.9,0,0,0-26.76,0Z"/><path class="cls-2" d="M404.54,94.25,423.27,39h20.08l-27.44,74.15h-23L365.46,39h20.21Z"/><path class="cls-2" d="M498.89,42.45a24.07,24.07,0,0,1,9.5,11.92V39h18.74v74.15H508.39V97.59a24.38,24.38,0,0,1-9.5,12,28.16,28.16,0,0,1-16.06,4.49A31.84,31.84,0,0,1,466,109.51a30.74,30.74,0,0,1-11.71-13.19A45.69,45.69,0,0,1,450,76.05a45.76,45.76,0,0,1,4.22-20.28A30.72,30.72,0,0,1,466,42.59,31.84,31.84,0,0,1,482.83,38,28.51,28.51,0,0,1,498.89,42.45Zm-24.36,17.8q-5.36,5.76-5.35,15.8t5.35,15.72q5.36,5.7,14.19,5.69a18.67,18.67,0,0,0,14.12-5.82q5.55-5.82,5.55-15.59t-5.55-15.73a18.67,18.67,0,0,0-14.12-5.82Q479.89,54.5,474.53,60.25Z"/><path class="cls-2" d="M601.48,45.8q9.56,7.77,12,21.15H593.51a15.37,15.37,0,0,0-5.48-9.3,16.87,16.87,0,0,0-10.85-3.42,16.16,16.16,0,0,0-12.51,5.56q-5,5.55-5,16.26t5,16.26a16.19,16.19,0,0,0,12.51,5.55A16.86,16.86,0,0,0,588,94.45a15.39,15.39,0,0,0,5.48-9.3h19.94q-2.4,13.38-12,21.14t-23.89,7.77a39.47,39.47,0,0,1-19.28-4.62A32.44,32.44,0,0,1,545.2,96.26q-4.69-8.57-4.69-20.21t4.69-20.28a31.9,31.9,0,0,1,13.11-13.18A40,40,0,0,1,577.59,38Q591.9,38,601.48,45.8Z"/><path class="cls-2" d="M695.9,79.66H641.56q.41,9.9,5.35,14.59a17.24,17.24,0,0,0,12.31,4.68,17.88,17.88,0,0,0,10.91-3.21,14.26,14.26,0,0,0,5.56-8.7h19.94a32,32,0,0,1-6.29,13.92A32.9,32.9,0,0,1,677,110.58a42.4,42.4,0,0,1-36.07-1.14,32.46,32.46,0,0,1-13.12-13.18q-4.68-8.57-4.68-20.21a42,42,0,0,1,4.68-20.28,31.93,31.93,0,0,1,13.12-13.18A40,40,0,0,1,660.16,38a39.12,39.12,0,0,1,19.21,4.55A32.07,32.07,0,0,1,692.08,55.1a36.79,36.79,0,0,1,3.82,24.56ZM672.81,57.58a18.14,18.14,0,0,0-12.65-4.69,18.57,18.57,0,0,0-12.85,4.69q-5.22,4.68-5.75,13.78h36Q678,62.27,672.81,57.58Z"/></g></g></g></svg>