<svg xmlns="http://www.w3.org/2000/svg" viewBox="0 0 56 56"><title>socialmedia</title><g id="Layer_2" data-name="Layer 2"><g id="Layer_1-2" data-name="Layer 1"><path d="M5,28V52H51V28a1,1,0,0,0-1-1H42v2.14A4,4,0,0,1,45,33V45a1,1,0,0,1-2,0,2,2,0,0,0-2-2H31a4,4,0,0,1-4,4H15a2,2,0,0,0-2,2,1,1,0,0,1-2,0V37a4,4,0,0,1,4-4h2V27H6A1,1,0,0,0,5,28Z"/><polygon points="26 4.87 26 9.13 29.2 7 26 4.87"/><path d="M27,29.56V27H19v6h6A4,4,0,0,1,27,29.56Z"/><path d="M23,14H33a2,2,0,0,0,2-2V2a2,2,0,0,0-2-2H23a2,2,0,0,0-2,2V12A2,2,0,0,0,23,14ZM24,3a1,1,0,0,1,1-1,1,1,0,0,1,.56.17l6,4a1,1,0,0,1,.27,1.38,1,1,0,0,1-.27.28l-6,4a1,1,0,0,1-1.39-.27A1,1,0,0,1,24,11Z"/><rect x="29" y="27" width="11" height="2"/><path d="M30,41H41a3.93,3.93,0,0,1,2,.54V33a2,2,0,0,0-2-2H29a2,2,0,0,0-2,2v6a2,2,0,0,0,2,2Zm7-6h2v2H37Zm-4,0h2v2H33Z"/><path d="M15,35a2,2,0,0,0-2,2v8.54A3.93,3.93,0,0,1,15,45H27a2,2,0,0,0,2-2,4,4,0,0,1-4-4V35Zm4,6H17V39h2Zm4,0H21V39h2Z"/><path d="M54,2H44a2,2,0,0,0-2,2V14a2,2,0,0,0,2,2H54a2,2,0,0,0,2-2V4A2,2,0,0,0,54,2ZM46,14H44V7h2Zm0-8H44V4h2Zm8,8H52V10.5a1.5,1.5,0,0,0-3,0V14H47V7h2v.35A3.4,3.4,0,0,1,50.5,7,3.5,3.5,0,0,1,54,10.5h0Z"/><path d="M2,17H7V11H5V9H7a4,4,0,0,1,4-4h1V7H11A2,2,0,0,0,9,9h3v2H9v6h3a2,2,0,0,0,2-2V5a2,2,0,0,0-2-2H2A2,2,0,0,0,0,5V15A2,2,0,0,0,2,17Z"/><path d="M4,54H.17A3,3,0,0,0,3,56H53a3,3,0,0,0,2.83-2Z"/><rect x="27" y="16" width="2" height="11"/><path d="M19,27H17V24a1,1,0,0,0-1-1H6a3,3,0,0,1-3-3V19H5v1a1,1,0,0,0,1,1H16a3,3,0,0,1,3,3Z"/><path d="M42,27H40V24a3,3,0,0,1,3-3h4a1,1,0,0,0,1-1V18h2v2a3,3,0,0,1-3,3H43a1,1,0,0,0-1,1Z"/></g></g></svg>