<svg xmlns="http://www.w3.org/2000/svg" viewBox="0 0 398.3 559.48"><defs><style>.cls-1{fill:#d67086;}.cls-2{fill:#a39372;}.cls-3{fill:#3b3387;}.cls-4{fill:#292949;}.cls-5{fill:#fff;}.cls-6{fill:#e1cfb5;}.cls-7{fill:#dddae8;}.cls-8{fill:#474ebb;}.cls-9{fill:#b5b7b8;}</style></defs><title>study-peolple</title><g id="Layer_2" data-name="Layer 2"><g id="Object"><path class="cls-1" d="M382,53.52A32.14,32.14,0,0,0,350,21.3c-2.39,0-6,1.29-8.19,0-1.84-1.07-2.52-3.62-3.94-5.12A28,28,0,0,0,306,9.9l-.05,0h0l-.67.31,0,0c-2.84,1.25-13.28,6.64-14.14,18.5a21.86,21.86,0,0,1,16.77,7,19.11,19.11,0,0,1,29.38,3.12A19,19,0,0,1,340,53.2,1,1,0,0,1,339,54l-.2,0a1,1,0,0,1-.74-1.13,17.21,17.21,0,0,0-29.59-15.06,1,1,0,0,1-1.35.06.86.86,0,0,1-.13-.14,20,20,0,0,0-28.16-2.33,1,1,0,0,1-1.24-1.46,21.89,21.89,0,0,1,11.5-5c.73-12.12,10.55-18.09,14.51-20a38.34,38.34,0,0,0-57,9.11,33.31,33.31,0,0,0-7.11-.78,33.68,33.68,0,0,0-29.21,17,36.53,36.53,0,0,0-3.28,8.29,6.89,6.89,0,0,1-.39,1.06A44,44,0,0,1,233.75,42a1,1,0,0,1,.67,1.18,1,1,0,0,1-1.17.67c-22-6.06-40.21,9.56-40.39,9.72a.89.89,0,0,1-.47.22,35.25,35.25,0,0,0-6.4,6.4,42.5,42.5,0,0,0,33.84,68.06c2.64,0,5.45-1.5,8-.62a21.24,21.24,0,0,1-.6-13.63,1,1,0,0,1,1.2-.63,1,1,0,0,1,.63,1.2c-3.22,10.39,4.84,20.06,4.92,20.16a.91.91,0,0,1,.2.39,18.73,18.73,0,0,0,5,4.4,35.49,35.49,0,0,0,33.95,1.82.86.86,0,0,1,.18-.14c14.26-8,16.39-23.79,16.41-24a1,1,0,0,1,1.9.24,36.71,36.71,0,0,1-12.84,22.34A36.09,36.09,0,0,0,306,152.3c5.29,0,10.79-1.53,15.81-3.49,5.28-2.06,9.12,5.79,11.13,9.17,2.95,5,4.56,11.1,8.78,15.26,6.08,6,12.68.66,13.4-6.67a58.79,58.79,0,0,0-.2-12.58c-.24-2.06-.67-4.42.27-6.37,1.11-2.33,3.24-2,5.46-2.49a29.67,29.67,0,0,0,21.19-38.66,26.65,26.65,0,0,1-8.5,2q-1,.06-2,.06c-5.26,0-12.62-1.43-20.73-7.18a1,1,0,0,1-.23-1.33,1,1,0,0,1,1.34-.23c16.7,11.84,30.1,4.65,30.24,4.58a.88.88,0,0,1,.27-.1,27.95,27.95,0,0,0-.17-50.7ZM276,101.74a.86.86,0,0,1-.32.05,1,1,0,0,1-.9-.64,20.43,20.43,0,0,0-25.65-12.69l-.13,0-.19.06A.94.94,0,0,1,247.6,88a.91.91,0,0,1,.08-.79,24.92,24.92,0,0,0-47.85-2.47,1,1,0,0,1-1.81-.62,26.84,26.84,0,0,1,51.43,2.27,22.36,22.36,0,0,1,27.14,14.16A1,1,0,0,1,276,101.74ZM355.6,81a1,1,0,0,1-1.35.14,22.64,22.64,0,0,0-36.76,20,1,1,0,0,1-.85,1h-.11a1,1,0,0,1-.94-.86,24.56,24.56,0,0,1,39.87-21.66A1,1,0,0,1,355.6,81Z"/><polygon class="cls-2" points="146.58 237.89 136.43 231.03 139.18 226.56 147.17 229.72 147.48 227.01 155.45 233.94 153.23 238.96 146.58 237.89"/><polygon class="cls-3" points="245.58 223 205.38 249.04 153.54 230.68 149.64 240.88 206.04 276.13 262.39 255.32 245.58 223"/><polygon class="cls-4" points="246.41 543.58 246.41 549.33 231.67 556.7 224.3 549.33 231.67 541.96 232.62 541.96 232.86 543.58 246.41 543.58"/><polygon class="cls-4" points="246.41 543.58 232.86 543.58 232.62 541.96 246.41 541.96 246.41 543.58"/><path class="cls-3" d="M266.92,219c15.85,1,32.09,9.27,36.63,24.69a19.16,19.16,0,0,1,.78,3.89c.63,7.93-1.79,13.78.5,21.75,2,6.91,3.79,13.93,5.11,21,1.91,10.25,3.68,20.44,5.07,30.61A313.23,313.23,0,0,1,318,354.56c0,1.24.29,4.69.42,8.81.3,8.64.11,20.19-3.53,20.62a3.58,3.58,0,0,1-1.93-.51c-4.68-2.27-8.37-5.24-12.49-7.83a44.71,44.71,0,0,0-4.58-2.55,57.81,57.81,0,0,0-10.28-3.66c6,.31,6.73-.8,6.73-.8s-5.4-21.69-9.19-40.56c-2-9.73-3.48-18.71-3.62-23.57-.43-14.64-2.3-63-2.3-63L268.09,223l-1.68,0,.37,0A12.83,12.83,0,0,1,266.92,219Z"/><path class="cls-3" d="M199.51,374.38c.93-9.59,1.9-19.17,3.08-28.73,2.35-19.07,5.55-38.1,11-56.56,2.07-7,4.46-14,6.85-21q4.35-12.69,8.72-25.39c3.61-10.52,9.71-17.93,20.39-21.61a39.38,39.38,0,0,1,6-1.54c.05.22.09.44.12.67a5.57,5.57,0,0,0,1.05,2.86l-7,.07s-19.77,69.1-20.5,81c-.28,4.53-1.2,14.41-2.22,24.82-1.62,16.48-3.49,34.28-3.49,34.28s8.68.2,21.24,1.14l-2.79-.06c-8.73-.07-17.79,3.64-26.16,6-.6.18-1.19.34-1.79.5-3.4.9-6.18,3.39-9,5.33C200.77,379.12,198.94,380.26,199.51,374.38Z"/><path class="cls-3" d="M215.76,368c8.36-2.41,17.42-6.12,26.15-6l2.79.05,2.37.19c5.85.46,12.43,1.08,19.29,1.9l1,.12a120.09,120.09,0,0,0,18.18,2.8,58.64,58.64,0,0,1,10.28,3.67,42.89,42.89,0,0,1,4.58,2.55l0,9.38L283.72,542H270v1.62h-.08l-15.1-106.89-.06-.6-8.27,107.49h-.08V542H232.62l-17.49-119.7Z"/><polygon class="cls-4" points="283.72 541.96 284.74 541.96 292.11 549.33 284.74 556.7 270 549.33 270 543.58 283.55 543.58 283.72 541.96"/><polygon class="cls-4" points="283.72 541.96 283.55 543.58 270 543.58 270 541.96 283.72 541.96"/><path class="cls-5" d="M223.46,363.29s8.68.2,21.24,1.14l2.37.18c5.85.46,12.43,1.08,19.29,1.9l1,.12a120.49,120.49,0,0,0,18.18,2.81c6,.31,6.73-.8,6.73-.8s-5.4-21.69-9.19-40.56c-2-9.73-3.48-18.7-3.62-23.57-.43-14.64-2.3-63-2.3-63L268.09,223l-1.68,0-7,.82a4.15,4.15,0,0,1-1.79,0,2,2,0,0,1-.75-.43,2,2,0,0,1-.25-.25l-7,.07s-19.77,69.1-20.5,81c-.28,4.53-1.2,14.41-2.22,24.82C225.33,345.49,223.46,363.29,223.46,363.29Z"/><path class="cls-6" d="M244.4,197.57c.46-1.86-.42-3.76-.83-5.64a5.06,5.06,0,0,1-.1-1.46,41.31,41.31,0,0,0,9.14-2.88c5.1-2.22,15-4.59,20.31-2,4.18,2.07,2.9,8.7,2.69,12.89a11.2,11.2,0,0,0,.11,3.22,13.68,13.68,0,0,0,1.34,2.71,11.59,11.59,0,0,1-2.47,4.59c-3.35,3.78-6.77,5.64-7.67,9.91a12.83,12.83,0,0,0-.14,4l-.37,0-7,.82a4.15,4.15,0,0,1-1.79,0,2,2,0,0,1-.75-.43,2,2,0,0,1-.25-.25,5.57,5.57,0,0,1-1.05-2.86c0-.23-.07-.45-.12-.67-.91-3.9-5.22-5.65-7.54-9.11a30.35,30.35,0,0,1-4.6-13.14l0-.24A6.81,6.81,0,0,0,244.4,197.57Z"/><path class="cls-4" d="M227.75,175.46c-.15,4.8,3.48,12.6,7.94,14.55a9.4,9.4,0,0,0,2.84.71c.94,2.61,2.51,5.13,4.8,6.38a6.81,6.81,0,0,0,1.07.47c.46-1.86-.42-3.76-.83-5.64a5.06,5.06,0,0,1-.1-1.46,41.31,41.31,0,0,0,9.14-2.88c5.1-2.22,15-4.59,20.31-2,4.18,2.07,2.9,8.7,2.69,12.89a11.2,11.2,0,0,0,.11,3.22,13.68,13.68,0,0,0,1.34,2.71,3.72,3.72,0,0,1,.32,1c3.42-1.54,5.5-5.4,7.43-8.54a32.76,32.76,0,0,0,2.59-5c3.18-8,2-18.7-2.88-26.34a16.87,16.87,0,0,0-5.15-5.42c-4.83-2.95-11.57-3.22-16.78-5.24-7.33-2.85-11-.28-18,1.94-2.77.89-5.94,1.66-7.41,4.28-.81,1.45-.93,3.23-1.74,4.68-1.06,1.86-3.05,2.83-4.78,4A6.69,6.69,0,0,0,227.75,175.46Z"/><polygon class="cls-6" points="357.69 171.52 359.48 159.4 354.33 158.41 351.27 166.43 349.05 164.83 348.78 175.39 353.99 177.15 357.69 171.52"/><polygon class="cls-3" points="279.85 234.48 326.2 222.42 347.67 171.78 357.83 175.79 345.73 241.19 292.33 268.7 279.85 234.48"/><polygon class="cls-4" points="168.66 545.45 169.31 551.82 157.21 559.48 150.2 553.76 155.92 546.74 168.01 539.08 168.66 545.45"/><polygon class="cls-4" points="169.13 351.14 171.09 370.48 153.82 456.93 169.12 543.33 156.74 547.14 116.72 444.42 114.52 413.01 119.94 347.96 169.13 351.14"/><polygon class="cls-4" points="75.32 357.73 74.92 439.45 91.03 544.71 102.87 544.63 109.69 447.36 125.25 350.03 75.32 357.73"/><polygon class="cls-4" points="102.83 549.62 90.07 556.11 83.63 549.75 89.99 543.3 102.79 543.22 102.83 549.62"/><path class="cls-7" d="M65.34,345.73c8.54-26.46,9.45-54.24,11.94-81.81.73-8.13,1.52-16.44,4.9-23.87,3.89-8.54,10.32-13,17.8-15.5,9.53-3.13,20.78-3,30.69-3.56,9.4-.29,17.71,35.05,27.3,52.18,5.88,10.5,11.94,19.78,15.9,31.24,3.81,11,7.46,22.17,9.67,33.61,3.34,17.27,11.89,29.32,3.73,35.2-.75.24-1.47.49-2.15.74a201.05,201.05,0,0,1-41.36,10.2,164.73,164.73,0,0,1-37.79.72c-17.21-1.7-33.87-4.13-49-13.1Z"/><rect class="cls-8" x="45.8" y="174.04" width="59.22" height="218.8" transform="translate(269.64 503.22) rotate(153.43)"/><polygon class="cls-6" points="52.97 172.35 2.83 138.3 0 198.84 52.97 172.35"/><polygon class="cls-4" points="21.64 151.07 2.83 138.3 1.77 161.01 21.64 151.07"/><path class="cls-9" d="M118.12,417.42l39.32-19.66a7.63,7.63,0,0,0,3.41-10.23l-10-19.49-53,26.49,10,19.48A7.63,7.63,0,0,0,118.12,417.42Z"/><polygon class="cls-5" points="97.86 394.53 150.83 368.04 145.88 358.14 92.7 384.21 97.86 394.53"/><polygon class="cls-2" points="133.62 328.29 124.01 336.83 120.18 332.88 125.47 325.58 122.79 324.55 131.9 318.25 136.43 321.82 133.62 328.29"/><polygon class="cls-7" points="136.13 256.51 152.73 276.31 128.1 319.35 137.46 325.97 187.92 277.79 148.66 222.12 136.13 256.51"/><path class="cls-2" d="M135.27,194.69c-5.36-16.17-29-21.8-34.44-3-1.65,5.65-2.64,11.64-1.52,17.41s4.65,11.32,10,13.69l.1,0-.63,4.5a1,1,0,0,0,1.07,1.39l5.37.8a6,6,0,0,0,2.67,0c1.87-.6,2.64-2.84,2.72-4.8,0-.47,0-.94,0-1.42C131.24,219.65,138.77,205.26,135.27,194.69Z"/><path class="cls-4" d="M106.52,167.08c-4.32-.64-8,3.55-12,5.75-3.32,1.83-7.08,2.31-10.51,3.83s-6.82,4.68-6.89,8.64c-3.48-1.81-7.26-3.67-11.16-2.92s-7.53,5.42-6,9.26c1.39,3.44,5.88,4.25,7.37,7.63,2.36,5.36-4,13.68.33,17.23,1,.85,2.48,1.06,3.51,1.94,1.28,1.09,1.69,3,2.25,4.63,2.58,7.56,10.2,12.5,17.73,11.49a20,20,0,0,0,10.08-11.91c2-6.25-1.33-8.43-1.89-14.29a25.55,25.55,0,0,1,5.46-18.18c2.62-3.24,6.38-6,10.35-6.41,1.62-.16,1.11,1.19,2.93-.06a8.06,8.06,0,0,0,2.06-3.54C115.83,176.68,112.2,167.92,106.52,167.08Z"/><path class="cls-4" d="M153.25,175.39c2.23.62,4.65.53,6.77,1.46,3.19,1.4,3,4.71,3.9,7.59,1,3.18,2.45,7.45,4.55,9.93,1.51,1.79,3.63,2.8,5.48,4.18s3.53,3.41,3.49,5.89-1.61,4.46-1.85,6.81c-.28,3.5.33,5.3-.75,8.87-.56,1.85-1.18,3.81-2.57,5.07-1.82,1.66-4.43,1.62-6.71,1.24s-4.65-1-6.9-.26c-4.89,1.65-4,6.59-5.27,10.73-2,6.3-9.29,10-14.88,7.74-4.74-1.9-7.49-7.4-7.27-12.84.11-2.72,1.19-5.25,1.27-8s-1.41-6.26,1-8.34a19.13,19.13,0,0,0,1.85-1.36,3.85,3.85,0,0,0,.8-1.72,7.54,7.54,0,0,0-1.25-6.2c-.92-1.19-2.24-2.06-2.8-3.5-.65-1.65-.14-3.58,0-5.41a10.9,10.9,0,0,0-5.82-10.44c-2.42-1.12-4.6-1.78-6.72-3.49-.32-.26-5.13-4.51-5.26-3.59a9.75,9.75,0,0,1,2.1-4.29,19.11,19.11,0,0,1,5.47-5.43c7.09-4.09,7.43,5.41,13.12,4.16,1.37-.3,2.41-1.56,3.64-2.31,2.33-1.41,5.2-.91,7.58.16S150.74,174.69,153.25,175.39Z"/><polygon class="cls-2" points="59.63 323.49 66.61 322 75.37 328.71 68.75 336.43 62.14 331.02 59.63 323.49"/></g></g></svg>