<svg xmlns="http://www.w3.org/2000/svg" viewBox="0 0 56 56"><title>video</title><g id="Layer_2" data-name="Layer 2"><g id="Layer_1-2" data-name="Layer 1"><path d="M12,16A8,8,0,1,0,4,8,8,8,0,0,0,12,16ZM12,2A6,6,0,1,1,6,8,6,6,0,0,1,12,2Z"/><path d="M32,16a8,8,0,1,0-8-8A8,8,0,0,0,32,16ZM32,2a6,6,0,1,1-6,6A6,6,0,0,1,32,2Z"/><polygon points="15 52 20 52 24 52 29 52 29 50 15 50 15 52"/><path d="M25.17,22a1.83,1.83,0,0,0-1.29.53L22,24.41l-1.88-1.88a1.83,1.83,0,0,0-2.59,2.59L22,29.59l4.47-4.47A1.83,1.83,0,0,0,25.17,22Z"/><circle cx="12" cy="8" r="4"/><rect x="46" y="26" width="2" height="14"/><path d="M41,18H3a3,3,0,0,0-3,3V45a3,3,0,0,0,3,3H41a3,3,0,0,0,3-3V21A3,3,0,0,0,41,18ZM26,44H4V42H26Zm0-4H4V38H26Zm0-4H4V34H26Zm1.88-9.47L22,32.41l-5.88-5.87a3.83,3.83,0,0,1,5.41-5.42l.47.47.47-.47a3.83,3.83,0,0,1,5.41,5.41ZM40,43a1,1,0,0,1-1,1H31a1,1,0,0,1-1-1V35a1,1,0,0,1,1-1h8a1,1,0,0,1,1,1Z"/><polygon points="50 25.41 50 40.59 56 46.59 56 19.41 50 25.41"/><rect x="32" y="36" width="6" height="6"/><rect x="21" y="54" width="2" height="2"/><circle cx="32" cy="8" r="4"/></g></g></svg>