<svg xmlns="http://www.w3.org/2000/svg" viewBox="0 0 71.73 71.73"><defs><style>.cls-1{fill:#57f676;}.cls-2{fill:#fff;fill-rule:evenodd;}</style></defs><title>whatsapp</title><g id="Layer_2" data-name="Layer 2"><g id="Capa_1" data-name="Capa 1"><path class="cls-1" d="M35.86,71.73h0A35.87,35.87,0,0,1,0,35.86H0A35.87,35.87,0,0,1,35.86,0h0A35.87,35.87,0,0,1,71.73,35.86h0A35.87,35.87,0,0,1,35.86,71.73Z"/><path class="cls-2" d="M55.53,34.87a19.32,19.32,0,0,0-38.6-.35c0,.28,0,.56,0,.84a19.09,19.09,0,0,0,2.76,9.9L16.19,55.54l10.7-3.4A19.33,19.33,0,0,0,55.53,35.36ZM36.22,51.47a16.15,16.15,0,0,1-8.93-2.67l-6.24,2,2-6A16,16,0,0,1,20,35.36c0-.53,0-1,.08-1.57a16.25,16.25,0,0,1,32.35.31c0,.42.05.83.05,1.26A16.19,16.19,0,0,1,36.22,51.47Z"/><path class="cls-2" d="M45.07,39.23c-.48-.24-2.8-1.38-3.23-1.53s-.76-.24-1.07.23-1.23,1.53-1.5,1.84-.55.35-1,.12a13,13,0,0,1-3.81-2.34,13.86,13.86,0,0,1-2.63-3.24.69.69,0,0,1,.21-1c.21-.22.47-.55.71-.82l.17-.23a4.74,4.74,0,0,0,.3-.56.87.87,0,0,0,0-.82c-.12-.24-1.07-2.55-1.47-3.49s-.79-.78-1.07-.78-.58,0-.9,0a1.77,1.77,0,0,0-1.27.59,5.28,5.28,0,0,0-1.65,3.93,6.2,6.2,0,0,0,.24,1.6A10.64,10.64,0,0,0,28.73,36c.24.31,3.28,5.21,8.09,7.1s4.82,1.25,5.68,1.17,2.81-1.13,3.2-2.24A4,4,0,0,0,46,39.77C45.86,39.58,45.54,39.46,45.07,39.23Z"/></g></g></svg>